<?xml version="1.0" standalone="no"?><!DOCTYPE svg PUBLIC "-//W3C//DTD SVG 1.1//EN" "http://www.w3.org/Graphics/SVG/1.1/DTD/svg11.dtd"><svg t="1597826558189" class="icon" viewBox="0 0 1024 1024" version="1.1" xmlns="http://www.w3.org/2000/svg" p-id="6050" xmlns:xlink="http://www.w3.org/1999/xlink" width="32" height="32"><defs><style type="text/css"></style></defs><path d="M512 960.8c-61.2 0-111-49.8-111-111.1h56.7c0 30 24.4 54.3 54.3 54.3s54.3-24.4 54.3-54.3H623c0.1 61.3-49.7 111.1-111 111.1zM511.5 146c-21.3 0-38.7-17.4-38.7-38.7s17.4-38.7 38.7-38.7c21.3 0 38.7 17.4 38.7 38.7S532.8 146 511.5 146z" fill="#FFCE00" p-id="6051"></path><path d="M865.9 675.7V472c0-195.4-159-354.4-354.4-354.4S157.1 276.6 157.1 472v204c-31.9 13.9-54.3 46.2-54.3 83.9 0 50.2 39.9 91.1 89 91.1h640.4c49.1 0 89.1-40.9 89.1-91.1 0-38-23-70.6-55.4-84.2z m-33.7 118.6H191.9c-17.8 0-32.3-15.4-32.3-34.4s14.5-34.4 32.3-34.4v-0.1c12.6-2.9 22-14.1 22-27.6V472c0-164.1 133.5-297.7 297.7-297.7 164.1 0 297.7 133.5 297.7 297.7v225.8c0 15.7 12.7 28.4 28.4 28.4h0.3c15.1 2.9 26.7 16.9 26.7 33.8-0.2 18.9-14.7 34.3-32.5 34.3z" fill="#FC592D" p-id="6052"></path></svg>