<?xml version="1.0" standalone="no"?><!DOCTYPE svg PUBLIC "-//W3C//DTD SVG 1.1//EN" "http://www.w3.org/Graphics/SVG/1.1/DTD/svg11.dtd"><svg t="1597807930112" class="icon" viewBox="0 0 1024 1024" version="1.1" xmlns="http://www.w3.org/2000/svg" p-id="2781" width="32" height="32" xmlns:xlink="http://www.w3.org/1999/xlink"><defs><style type="text/css"></style></defs><path d="M925.218718 336.212368c-22.626323-53.497425-55.014988-101.537558-96.260367-142.78396-41.247426-41.247426-89.285512-73.634044-142.782937-96.261391-55.403844-23.433712-114.238834-35.31532-174.871773-35.31532-60.650335 0-119.485325 11.881608-174.890192 35.31532-53.497425 22.627347-101.537558 55.014988-142.78396 96.261391-41.247426 41.246403-73.634044 89.285512-96.261391 142.78396-23.433712 55.403844-35.31532 114.237811-35.31532 174.87075 0 60.621682 11.881608 119.457696 35.31532 174.860517 22.627347 53.497425 55.014988 101.539604 96.261391 142.782937 41.246403 41.24845 89.285512 73.634044 142.78396 96.262414 55.404867 23.431665 114.238834 35.314297 174.890192 35.314297 60.632939 0 119.467929-11.881608 174.871773-35.314297 53.497425-22.62837 101.537558-55.014988 142.782937-96.262414 41.247426-41.246403 73.634044-89.285512 96.260367-142.782937 23.432689-55.402821 35.316344-114.238834 35.316344-174.860517C960.535061 450.451202 948.653453 391.616212 925.218718 336.212368zM511.30364 898.90491c-213.870995 0-387.852492-173.980473-387.852492-387.821793 0-213.851553 173.981497-387.833049 387.852492-387.833049 213.850529 0 387.833049 173.981497 387.833049 387.833049C899.136689 724.924437 725.155193 898.90491 511.30364 898.90491z" p-id="2782" fill="#1afa29"></path><path d="M757.69326 364.343055c-11.69639-11.69639-30.753421-11.603269-42.561351 0.205685L461.65794 620.946294 307.874461 467.181235c-11.808954-11.809977-30.867008-11.901051-42.563398-0.204661l-1.057075 1.057075c-11.697413 11.697413-11.604292 30.752398 0.204661 42.562375L440.332239 686.448124c2.292206 2.292206 4.859681 4.137227 7.589862 5.54632 0.011256 0.00614 0.022513 0.011256 0.033769 0.017396 0.381693 0.195451 0.765433 0.38681 1.153266 0.565888 0.348947 0.162706 0.703011 0.315178 1.057075 0.462534 0.059352 0.024559 0.11768 0.052189 0.177032 0.076748 4.464685 1.838881 9.290597 2.549056 14.047947 2.134617 0.061398-0.005117 0.122797-0.008186 0.184195-0.014326 0.366344-0.033769 0.732687-0.078795 1.098008-0.125867 0.124843-0.016373 0.248663-0.028653 0.373507-0.047072 0.319272-0.045025 0.63752-0.101307 0.954745-0.156566 0.163729-0.027629 0.327458-0.054235 0.491187-0.084934 0.300852-0.058328 0.600681-0.125867 0.900509-0.192382 0.170892-0.037862 0.342808-0.072655 0.5137-0.11461 0.322341-0.077771 0.64366-0.166799 0.963954-0.255827 0.13917-0.038886 0.278339-0.072655 0.417509-0.113587 0.398066-0.116657 0.793062-0.24457 1.187035-0.3776 0.050142-0.017396 0.101307-0.031722 0.150426-0.050142 4.234441-1.458211 8.218172-3.875261 11.604292-7.262404l275.316439-278.490735c11.80793-11.808954 11.900028-30.867008 0.203638-42.563398L757.69326 364.343055z" p-id="2783" fill="#1afa29"></path></svg>